<?xml version="1.0" encoding="UTF-8"?>
<svg version="1.1" xmlns="http://www.w3.org/2000/svg" width="394" height="304">
  <path d="M0 0 C4.19120247 0.726621 7.80855787 2.7744164 11.5625 4.6875 C12.27631836 5.04908203 12.99013672 5.41066406 13.72558594 5.78320312 C15.82043815 6.84902167 17.91103011 7.92270536 20 9 C21.52173828 9.78310547 21.52173828 9.78310547 23.07421875 10.58203125 C29.10780147 13.77938968 34.69911352 17.4191841 40.2734375 21.36328125 C43.06975273 23.04187163 44.77846582 23.69258326 48 24 C50.27506386 23.12539848 50.27506386 23.12539848 52.3984375 21.61328125 C53.20796875 21.08669922 54.0175 20.56011719 54.8515625 20.01757812 C56.10066406 19.17356445 56.10066406 19.17356445 57.375 18.3125 C60.57930546 16.20216445 63.78577786 14.09520438 67 12 C67.65299072 11.57291748 68.30598145 11.14583496 68.97875977 10.70581055 C72.59525789 8.46973766 74.96238883 7.50906402 79.1875 8.1875 C80.00605469 8.30480469 80.82460938 8.42210938 81.66796875 8.54296875 C83.80164297 8.96112601 85.89829782 9.44437758 88 10 C88 10.66 88 11.32 88 12 C89.3303125 12.0928125 89.3303125 12.0928125 90.6875 12.1875 C94.81434716 13.19974553 96.3433707 14.73614114 99 18 C99.8125 20.3125 99.8125 20.3125 100 22 C100.66 22 101.32 22 102 22 C102.54140824 23.96447732 103.08275027 25.9289729 103.6237793 27.89355469 C104.08478317 29.55454134 104.55113908 31.21405139 105.02270508 32.87207031 C105.99895433 36.31112248 106.94042368 39.70498956 107.6484375 43.2109375 C108.5036319 47.23902708 109.12305545 49.29673603 112.40625 51.9296875 C114.88929517 53.44322908 117.36116959 54.78207827 120 56 C119.47932209 66.42726018 118.528829 76.66927199 117 87 C113.97244754 84.26355835 111.80497313 80.95970025 109.5 77.625 C104.7945097 70.93204886 99.71699882 64.6657927 94.32714844 58.51513672 C93.02520628 57.02877671 91.73512765 55.53205182 90.4453125 54.03515625 C85.91486573 48.62781817 85.91486573 48.62781817 80 45 C78.68 45.99 77.36 46.98 76 48 C77.65166696 52.1848985 80.73489955 55.02326348 83.8125 58.1875 C91.20939956 65.96070744 97.65890082 74.35720376 104 83 C104.48984375 83.65629395 104.9796875 84.31258789 105.484375 84.98876953 C109 89.76720506 109 89.76720506 109 92 C108.35933594 92.38671875 107.71867188 92.7734375 107.05859375 93.171875 C104.67845055 94.93139976 104.67845055 94.93139976 104.22265625 98.328125 C103.73520711 105.98306149 103.73520711 105.98306149 107.18359375 112.578125 C113.2712677 116.7322659 116.91201941 117.2831689 124 116 C125.27741591 118.64282484 126.54697567 121.28898587 127.8125 123.9375 C128.16892578 124.67291016 128.52535156 125.40832031 128.89257812 126.16601562 C129.24384766 126.90400391 129.59511719 127.64199219 129.95703125 128.40234375 C130.27647705 129.06741943 130.59592285 129.73249512 130.92504883 130.41772461 C132.49793474 134.19615167 133.7057635 138.1172905 135 142 C120.15 142 105.3 142 90 142 C87.69 137.05 85.38 132.1 83 127 C74.77409537 110.25071306 65.15155941 95.17681931 53 81 C52.37609375 80.26523438 51.7521875 79.53046875 51.109375 78.7734375 C49.74720985 77.17575781 48.37505381 75.58660055 47 74 C25.7317614 90.06933583 13.79719344 118.60608089 3 142 C-11.85 142 -26.7 142 -42 142 C-34.19577134 118.58731402 -34.19577134 118.58731402 -28.72265625 114.15625 C-26.4375 113.1875 -26.4375 113.1875 -24.37109375 112.66796875 C-20.88761269 111.68662565 -18.1031197 109.85434911 -15 108 C-15.11601562 106.79085937 -15.23203125 105.58171875 -15.3515625 104.3359375 C-16.07881496 93.4617285 -15.08643069 86.7098022 -7.984375 78.3359375 C-6.98979528 77.22376876 -5.99499982 76.11179292 -5 75 C-4.00051525 73.80860894 -3.00576451 72.61323146 -2.015625 71.4140625 C1.86705868 66.75144285 5.87351608 62.20857502 9.984375 57.74609375 C10.45101562 57.23908936 10.91765625 56.73208496 11.3984375 56.2097168 C12.67002884 54.83637058 13.95187282 53.47253769 15.234375 52.109375 C17.213953 50.20285892 17.213953 50.20285892 17 48 C15.02 47.01 13.04 46.02 11 45 C1.53456382 54.10974129 -6.52268166 63.97043094 -14.4375 74.4375 C-15.21843018 75.46738037 -15.21843018 75.46738037 -16.01513672 76.51806641 C-16.50385254 77.17081543 -16.99256836 77.82356445 -17.49609375 78.49609375 C-17.93107178 79.07544678 -18.3660498 79.6547998 -18.81420898 80.25170898 C-20.06684271 82.09855068 -21.04571919 83.98510028 -22 86 C-23.32 85.67 -24.64 85.34 -26 85 C-26.34153092 81.70913156 -26.67166646 78.41720923 -27 75.125 C-27.09539062 74.2071875 -27.19078125 73.289375 -27.2890625 72.34375 C-27.56310664 69.5641594 -27.79273755 66.7853336 -28 64 C-28.11794922 62.60346191 -28.11794922 62.60346191 -28.23828125 61.17871094 C-28.36482423 58.69214138 -28.42253973 56.45393511 -28 54 C-25.8125 52.125 -25.8125 52.125 -23 51 C-20.20138864 49.35422571 -18.35555809 48.23045017 -17.4296875 45.02636719 C-17.10848257 42.61835975 -17.00385566 40.30406464 -17 37.875 C-16.98839844 37.08609375 -16.97679687 36.2971875 -16.96484375 35.484375 C-17.10382904 32.2043222 -17.24355347 29.89670432 -19.40625 27.33300781 C-21.21234541 25.76703313 -21.21234541 25.76703313 -24 24 C-20.39652362 15.87873235 -12.1827697 10.37131859 -5.41796875 4.98046875 C-3.02964814 3.13990907 -3.02964814 3.13990907 -1.42578125 1.17578125 C-0.95527344 0.78777344 -0.48476562 0.39976563 0 0 Z " fill="#46B9BC" transform="translate(191,113)"/>
  <path d="M0 0 C3.52863278 1.86271536 6.42827163 4.1365852 9.38671875 6.77734375 C9.95108643 7.26912109 10.5154541 7.76089844 11.09692383 8.26757812 C12.22201722 9.24936084 13.34393504 10.23479641 14.46240234 11.22412109 C15.81714391 12.418326 17.1885036 13.59362501 18.5625 14.765625 C21.52490277 17.29476959 23.83494257 19.32467948 26.01171875 22.58984375 C24.48417969 23.79253906 24.48417969 23.79253906 22.92578125 25.01953125 C-8.72354555 50.29742342 -28.15572264 79.1193001 -44.98828125 115.58984375 C-59.83828125 115.58984375 -74.68828125 115.58984375 -89.98828125 115.58984375 C-82.18405259 92.17715777 -82.18405259 92.17715777 -76.7109375 87.74609375 C-74.42578125 86.77734375 -74.42578125 86.77734375 -72.359375 86.2578125 C-68.87589394 85.2764694 -66.09140095 83.44419286 -62.98828125 81.58984375 C-63.10429687 80.38070312 -63.2203125 79.1715625 -63.33984375 77.92578125 C-64.06709621 67.05157225 -63.07471194 60.29964595 -55.97265625 51.92578125 C-54.97807653 50.81361251 -53.98328107 49.70163667 -52.98828125 48.58984375 C-51.9887965 47.39845269 -50.99404576 46.20307521 -50.00390625 45.00390625 C-47.06486401 41.47238437 -44.03760916 38.0261167 -40.98828125 34.58984375 C-40.50198242 34.03506348 -40.01568359 33.4802832 -39.51464844 32.90869141 C-38.13761064 31.33793474 -36.75246601 29.77485931 -35.36328125 28.21484375 C-34.16832031 26.87292969 -34.16832031 26.87292969 -32.94921875 25.50390625 C-30.98828125 23.58984375 -30.98828125 23.58984375 -28.98828125 23.58984375 C-28.75753906 23.02523437 -28.52679688 22.460625 -28.2890625 21.87890625 C-25.42372826 16.83660635 -20.35370863 13.32233626 -15.98828125 9.58984375 C-15.43011719 9.10483398 -14.87195313 8.61982422 -14.296875 8.12011719 C-12.60933447 6.66802508 -10.89815463 5.25035013 -9.17578125 3.83984375 C-8.38627075 3.15801025 -8.38627075 3.15801025 -7.58081055 2.46240234 C-4.84454792 0.28701535 -3.51465536 -0.48240368 0 0 Z " fill="#1BADA3" transform="translate(238.98828125,139.41015625)"/>
  <path d="M0 0 C3.00646548 1.95448998 3.61154503 3.02792663 4.55078125 6.546875 C4.82883494 10.48112718 4.74549314 13.50728099 3.6875 17.3125 C0.79470881 20.42945582 -2.22251911 22.16606596 -6.3125 23.3125 C-8.44921875 23.01171875 -8.44921875 23.01171875 -10.3125 22.3125 C-14.75880363 20.49620791 -14.75880363 20.49620791 -19.3125 21.3125 C-16.99385259 23.98155393 -15.03815191 24.7782504 -11.75 25.9375 C-9.34375 27.22265625 -9.34375 27.22265625 -7.3125 29.3125 C-5.92421242 34.27142116 -5.57009727 39.05255802 -5.40332031 44.18261719 C-5.32205631 46.08838908 -5.11818499 47.98800871 -4.8984375 49.8828125 C-4.6287072 52.95773796 -4.48828225 55.33374814 -5.3125 58.3125 C-7.32421875 59.8515625 -7.32421875 59.8515625 -9.8125 61.125 C-12.36813007 62.30241882 -12.36813007 62.30241882 -14.3125 64.3125 C-15.30287308 69.41292134 -15.27098518 74.17600251 -14.3125 79.3125 C-13.3225 79.9725 -12.3325 80.6325 -11.3125 81.3125 C-11.85320804 87.07383737 -14.15234691 91.58510328 -16.6875 96.6875 C-17.49017543 98.31874362 -18.28969468 99.95154435 -19.0859375 101.5859375 C-19.44091309 102.30185059 -19.79588867 103.01776367 -20.16162109 103.75537109 C-21.71351684 107.20351621 -22.98480364 110.77197638 -24.3125 114.3125 C-39.4925 114.3125 -54.6725 114.3125 -70.3125 114.3125 C-68.25703845 107.46096151 -66.14218774 101.07336399 -63.3125 94.5625 C-62.92151123 93.66128418 -62.53052246 92.76006836 -62.12768555 91.83154297 C-55.63495296 77.05779811 -48.42091384 62.80994099 -40.0625 49 C-39.49635986 48.06365723 -38.93021973 47.12731445 -38.34692383 46.16259766 C-35.06183479 40.84114603 -31.54216318 35.86465785 -27.60644531 31.00317383 C-26.21120512 29.53498229 -26.21120512 29.53498229 -26.3125 28.3125 C-26.8065332 28.69059814 -27.30056641 29.06869629 -27.80957031 29.45825195 C-30.06039594 31.18069864 -32.31144581 32.90285204 -34.5625 34.625 C-35.33980469 35.21990234 -36.11710937 35.81480469 -36.91796875 36.42773438 C-37.67207031 37.00458984 -38.42617187 37.58144531 -39.203125 38.17578125 C-39.89438477 38.70469971 -40.58564453 39.23361816 -41.29785156 39.77856445 C-42.68803099 40.8370348 -44.10930615 41.85545333 -45.55322266 42.83935547 C-47.62372122 44.22275315 -47.62372122 44.22275315 -47.5703125 47.01953125 C-47.52648437 48.04433594 -47.48265625 49.06914062 -47.4375 50.125 C-47.69373441 55.6879838 -47.69373441 55.6879838 -50.4140625 58.43359375 C-54.71767204 61.08050404 -58.173635 62.88889718 -63.3125 62.3125 C-67.03624841 61.01599618 -69.74098132 59.31530064 -72.3125 56.3125 C-73.64691385 51.7148907 -73.65413063 47.9090432 -72.3125 43.3125 C-68.93732481 39.5067469 -64.3799869 37.02728236 -59.3125 36.3125 C-58.508125 36.828125 -57.70375 37.34375 -56.875 37.875 C-54.46115077 39.61162408 -54.46115077 39.61162408 -52.125 38.78125 C-48.237262 36.75098682 -45.09459898 34.06703068 -41.75 31.25 C-40.33078789 30.07647734 -38.91020139 28.90461495 -37.48828125 27.734375 C-36.78654785 27.15623047 -36.08481445 26.57808594 -35.36181641 25.98242188 C-22.43168639 23.59475338 -19.4529404 21.27861469 -26.4375 19 C-25.49132812 18.28199219 -24.54515625 17.56398437 -23.5703125 16.82421875 C-21.3125 15.3125 -21.3125 15.3125 -19.3125 15.3125 C-19.42851562 14.51585937 -19.54453125 13.71921875 -19.6640625 12.8984375 C-19.95553856 9.47567581 -20.01894984 6.68205167 -19.3125 3.3125 C-13.4087309 -2.92862734 -7.51940249 -3.58269083 0 0 Z " fill="#11AF7E" transform="translate(164.3125,140.6875)"/>
  <path d="M0 0 C11.02656246 10.94665983 20.79145265 22.48638149 30 35 C30.49129395 35.65774414 30.98258789 36.31548828 31.48876953 36.99316406 C35 41.76606955 35 41.76606955 35 44 C34.03900391 44.58007812 34.03900391 44.58007812 33.05859375 45.171875 C30.67845055 46.93139976 30.67845055 46.93139976 30.22265625 50.328125 C29.73520711 57.98306149 29.73520711 57.98306149 33.18359375 64.578125 C39.2712677 68.7322659 42.91201941 69.2831689 50 68 C51.27741591 70.64282484 52.54697567 73.28898587 53.8125 75.9375 C54.16892578 76.67291016 54.52535156 77.40832031 54.89257812 78.16601562 C55.41948242 79.27299805 55.41948242 79.27299805 55.95703125 80.40234375 C56.43619995 81.39995728 56.43619995 81.39995728 56.92504883 82.41772461 C58.49793474 86.19615167 59.7057635 90.1172905 61 94 C46.15 94 31.3 94 16 94 C13.69 89.05 11.38 84.1 9 79 C0.77409537 62.25071306 -8.84844059 47.17681931 -21 33 C-21.62390625 32.26523438 -22.2478125 31.53046875 -22.890625 30.7734375 C-24.25279015 29.17575781 -25.62494619 27.58660055 -27 26 C-22.45430204 15.11557877 -9.12996068 6.89078784 0 0 Z " fill="#68C9A8" transform="translate(265,161)"/>
  <path d="M0 0 C3.26485278 2.23159413 6.06228384 4.9125178 8.92724609 7.62817383 C11.40724412 9.95883953 13.78447975 11.89434247 16.7109375 13.61328125 C20.81678877 18.47547354 20.07045361 25.2709342 20.0859375 31.42578125 C20.81941406 31.70164063 21.55289062 31.9775 22.30859375 32.26171875 C25.6607739 33.66671128 28.62230867 35.49301636 31.70703125 37.40234375 C34.62653447 38.65835335 36.94029982 38.59777295 40.0859375 38.42578125 C45.57142132 49.48486218 50.7213153 60.60902304 55.2109375 72.11328125 C55.60079834 73.11045166 55.99065918 74.10762207 56.39233398 75.13500977 C59.0859375 82.14790946 59.0859375 82.14790946 59.0859375 84.42578125 C43.9059375 84.42578125 28.7259375 84.42578125 13.0859375 84.42578125 C10.1159375 77.49578125 7.1459375 70.56578125 4.0859375 63.42578125 C2.7659375 60.78578125 1.4459375 58.14578125 0.0859375 55.42578125 C-0.2253418 52.96044922 -0.2253418 52.96044922 0.01171875 50.91796875 C0.07101562 50.16112793 0.1303125 49.40428711 0.19140625 48.62451172 C0.25972656 47.85768066 0.32804687 47.09084961 0.3984375 46.30078125 C0.82318855 40.17188433 0.82318855 40.17188433 -1.90234375 34.92578125 C-4.20424734 33.43652481 -6.32652588 32.31909746 -8.9140625 31.42578125 C-8.63669886 26.75439367 -8.29912361 22.08941829 -7.9140625 17.42578125 C-7.85492676 16.69939453 -7.79579102 15.97300781 -7.73486328 15.22460938 C-7.5459904 13.03887438 -7.32803802 10.85791017 -7.1015625 8.67578125 C-7.04371582 7.98484375 -6.98586914 7.29390625 -6.92626953 6.58203125 C-6.39409502 1.84105563 -6.39409502 1.84105563 -4.08984375 -0.15234375 C-1.9140625 -0.57421875 -1.9140625 -0.57421875 0 0 Z " fill="#93B2E7" transform="translate(321.9140625,170.57421875)"/>
  <path d="M0 0 C4.19125329 0.72662981 7.80844372 2.77455737 11.5625 4.6875 C12.27269287 5.04690674 12.98288574 5.40631348 13.71459961 5.77661133 C22.1495478 10.06509951 30.43077477 14.28102983 38 20 C33.2339795 24.92488785 28.11637205 29.44432626 23 34 C22.24589844 34.68191406 21.49179688 35.36382812 20.71484375 36.06640625 C20.02519531 36.68386719 19.33554688 37.30132812 18.625 37.9375 C17.71621094 38.75541016 17.71621094 38.75541016 16.7890625 39.58984375 C15 41 15 41 12.8984375 41.94140625 C10.49657501 43.2807164 10.14035408 44.54068216 9 47 C7.85715987 48.2305401 6.66398193 49.41530579 5.4375 50.5625 C-1.99713328 57.83696165 -8.18011275 66.15687837 -14.4375 74.4375 C-14.95795898 75.12392578 -15.47841797 75.81035156 -16.01464844 76.51757812 C-16.74796387 77.49694336 -16.74796387 77.49694336 -17.49609375 78.49609375 C-17.93107178 79.07544678 -18.3660498 79.6547998 -18.81420898 80.25170898 C-20.06684271 82.09855068 -21.04571919 83.98510028 -22 86 C-23.32 85.67 -24.64 85.34 -26 85 C-26.34153092 81.70913156 -26.67166646 78.41720923 -27 75.125 C-27.09539062 74.2071875 -27.19078125 73.289375 -27.2890625 72.34375 C-27.56310664 69.5641594 -27.79273755 66.7853336 -28 64 C-28.07863281 63.06897461 -28.15726563 62.13794922 -28.23828125 61.17871094 C-28.36482423 58.69214138 -28.42253973 56.45393511 -28 54 C-25.8125 52.125 -25.8125 52.125 -23 51 C-20.20138864 49.35422571 -18.35555809 48.23045017 -17.4296875 45.02636719 C-17.10848257 42.61835975 -17.00385566 40.30406464 -17 37.875 C-16.98839844 37.08609375 -16.97679687 36.2971875 -16.96484375 35.484375 C-17.10382904 32.2043222 -17.24355347 29.89670432 -19.40625 27.33300781 C-21.21234541 25.76703313 -21.21234541 25.76703313 -24 24 C-20.39652362 15.87873235 -12.1827697 10.37131859 -5.41796875 4.98046875 C-3.02964814 3.13990907 -3.02964814 3.13990907 -1.42578125 1.17578125 C-0.72001953 0.59376953 -0.72001953 0.59376953 0 0 Z " fill="#08B97B" transform="translate(191,113)"/>
  <path d="M0 0 C3.09069356 1.38147179 6.06854508 2.98360998 9.0625 4.5625 C9.91142822 5.00996582 10.76035645 5.45743164 11.63500977 5.91845703 C19.89689985 10.35389531 27.44306178 15.21902061 34 22 C32.89785156 22.59425781 31.79570312 23.18851563 30.66015625 23.80078125 C21.64833158 28.71095488 12.90440755 33.80043815 4.48461914 39.68286133 C-0.50942975 43.06545663 -0.50942975 43.06545663 -3.02734375 42.72949219 C-6.12606428 41.5835792 -8.83493944 39.80421876 -11.625 38.0625 C-20.26525693 32.76524493 -29.11626823 27.87434996 -38 23 C-38 22.01 -38 21.02 -38 20 C-35.75390625 18.08984375 -35.75390625 18.08984375 -32.5625 15.9375 C-31.99281494 15.55263428 -31.42312988 15.16776855 -30.83618164 14.77124023 C-23.44185169 9.8512314 -15.76763658 5.30486677 -8 1 C-7.02075562 0.41013306 -7.02075562 0.41013306 -6.02172852 -0.19165039 C-3.49779374 -1.2007976 -2.5189688 -0.94021513 0 0 Z " fill="#84BBCE" transform="translate(240,85)"/>
  <path d="M0 0 C3.53326319 1.85816691 6.43098169 4.13161121 9.390625 6.7734375 C10.23717651 7.51110352 10.23717651 7.51110352 11.10083008 8.26367188 C12.22592347 9.24545459 13.34784129 10.23089016 14.46630859 11.22021484 C15.82105016 12.41441975 17.19240985 13.58971876 18.56640625 14.76171875 C21.52880902 17.29086334 23.83884882 19.32077323 26.015625 22.5859375 C25.54777588 22.96290771 25.07992676 23.33987793 24.59790039 23.72827148 C22.42026601 25.4880058 20.2482469 27.25444635 18.078125 29.0234375 C16.91083862 29.97391968 16.91083862 29.97391968 15.7199707 30.94360352 C10.6868987 35.08604312 6.09309385 39.31351339 1.77734375 44.20703125 C0.015625 45.5859375 0.015625 45.5859375 -1.94140625 45.58203125 C-4.68907157 44.24234739 -6.28405159 42.45625327 -8.359375 40.2109375 C-13.04538271 35.33552528 -18.06028988 31.24721616 -23.51318359 27.25439453 C-25.05519951 26.09734792 -26.5270419 24.84797957 -27.984375 23.5859375 C-27.984375 20.5859375 -27.984375 20.5859375 -25.81640625 18.23828125 C-24.81951646 17.32274605 -23.8122057 16.41847802 -22.796875 15.5234375 C-22.26239746 15.04753174 -21.72791992 14.57162598 -21.17724609 14.08129883 C-19.45834524 12.56833658 -17.72346662 11.07562637 -15.984375 9.5859375 C-15.40768066 9.08384766 -14.83098633 8.58175781 -14.23681641 8.06445312 C-12.547649 6.60802815 -10.83489022 5.1865034 -9.109375 3.7734375 C-8.58706299 3.32282959 -8.06475098 2.87222168 -7.52661133 2.40795898 C-4.80458832 0.24983 -3.49024797 -0.48424906 0 0 Z " fill="#1B8A94" transform="translate(238.984375,139.4140625)"/>
  <path d="M0 0 C2.07183612 3.10775418 2.55955709 5.07984102 3.3125 8.6875 C5.34953979 17.04743061 8.55610324 22.69594595 15.6640625 27.6796875 C19.8778807 30.06141083 24.393413 31.56044156 29 33 C26.06920694 34.95386204 23.54317099 35.92976281 20.25 37.125 C12.45520789 40.34458805 8.3024682 44.9052208 4.6875 52.4375 C2.90047516 56.83987021 1.83864258 61.33229196 1 66 C-0.71568634 62.83952516 -1.73307929 59.69325783 -2.75 56.25 C-5.41091091 48.16871501 -9.28465833 42.00054753 -17 38 C-20.96261023 36.53688238 -24.95919244 35.22924243 -29 34 C-26.07737904 32.05158602 -23.45175486 30.94803615 -20.1875 29.6875 C-13.00995922 26.70912361 -8.26726579 23.77924767 -4.9453125 16.53515625 C-2.93237196 11.1368157 -1.46969421 5.56607596 0 0 Z " fill="#9BCEC8" transform="translate(303,81)"/>
  <path d="M0 0 C2.875 0.9375 2.875 0.9375 5 3 C5.07763844 4.49813427 5.08864752 6.00008322 5.0625 7.5 C5.2749037 12.04676671 6.63884926 14.16152601 9.94726562 17.27734375 C12.08988539 19.14792594 14.25882404 20.97738549 16.47265625 22.76318359 C18.55538002 24.44973708 20.55703043 26.22276484 22.5625 28 C23.16191406 28.515625 23.76132812 29.03125 24.37890625 29.5625 C26 31 26 31 27.56640625 32.703125 C28.03949219 33.13109375 28.51257813 33.5590625 29 34 C31.58387805 33.72801284 33.87918839 33.03548592 36.3671875 32.3046875 C39.6586659 31.92377457 40.94901004 32.67372758 43.75 34.375 C44.52859375 34.83648437 45.3071875 35.29796875 46.109375 35.7734375 C48 37 48 37 49 38 C49.73031957 42.79470676 49.93091122 47.22774247 49 52 C46.15147041 55.18428783 43.11492385 56.8886702 39 58 C33.81404885 57.46462446 28.68560514 55.77813079 25 52 C24.38009844 48.67348602 24.37410381 45.53657574 24.33984375 42.15625 C23.87179276 37.8092937 22.30127612 36.25450783 19.02734375 33.54296875 C18.35832031 33.03378906 17.68929688 32.52460938 17 32 C15.66133343 30.81851541 14.32803652 29.63092073 13 28.4375 C12.3296875 27.86902344 11.659375 27.30054688 10.96875 26.71484375 C9 25 9 25 7.21875 23.19140625 C5.5338135 21.53327556 4.06012601 20.16363162 2 19 C-1.63349067 19.32664132 -1.63349067 19.32664132 -3.93359375 19.8984375 C-7.92867716 20.09479321 -10.95253892 17.34233046 -14 15 C-13.60306272 12.89202247 -13.18170804 10.78863223 -12.75 8.6875 C-12.51796875 7.51574219 -12.2859375 6.34398437 -12.046875 5.13671875 C-9.86524192 -1.40004006 -6.2227286 -1.52838948 0 0 Z " fill="#5495EB" transform="translate(321,146)"/>
  <path d="M0 0 C0.33 0 0.66 0 1 0 C1.25394531 1.15757812 1.50789063 2.31515625 1.76953125 3.5078125 C2.11677954 5.0469671 2.46445867 6.58602453 2.8125 8.125 C2.97814453 8.88554687 3.14378906 9.64609375 3.31445312 10.4296875 C5.07090649 18.52754196 5.07090649 18.52754196 10.26171875 24.6796875 C11.06222656 25.07414062 11.86273438 25.46859375 12.6875 25.875 C13.49574219 26.28492188 14.30398438 26.69484375 15.13671875 27.1171875 C16.05904297 27.55417969 16.05904297 27.55417969 17 28 C16.47932209 38.42726018 15.528829 48.66927199 14 59 C10.97244754 56.26355835 8.80497313 52.95970025 6.5 49.625 C-0.64550054 39.46144998 -8.75475701 30.20149927 -17.22265625 21.12109375 C-18.87948416 19.1438244 -19.9703096 17.35281588 -21 15 C-18.79411638 13.55862125 -16.58545003 12.12184635 -14.375 10.6875 C-13.44880859 10.08131836 -13.44880859 10.08131836 -12.50390625 9.46289062 C-9.57408909 7.56621952 -6.7682906 5.89053728 -3.6015625 4.39453125 C-0.69105253 3.21771444 -0.69105253 3.21771444 0 0 Z " fill="#97B7E9" transform="translate(294,141)"/>
  <path d="M0 0 C2.97 1.65 5.94 3.3 9 5 C5.89094248 8.28178294 2.48745933 10.99292141 -1.125 13.6875 C-7.78082318 18.7230129 -14.09342413 24.09342413 -20 30 C-22.33333333 27.66666667 -24.66666667 25.33333333 -27 23 C-21.9713684 18.5648094 -16.89953354 14.18043806 -11.8125 9.8125 C-11.21872559 9.30170898 -10.62495117 8.79091797 -10.01318359 8.26464844 C-6.72438662 5.44462706 -3.4017169 2.68421729 0 0 Z " fill="#57C09A" transform="translate(229,133)"/>
  <path d="M0 0 C0.763125 0.495 1.52625 0.99 2.3125 1.5 C3.240625 1.809375 4.16875 2.11875 5.125 2.4375 C7.3125 4.5 7.3125 4.5 7.625 7.140625 C7.625 9.94374969 7.52599915 12.70553337 7.3125 15.5 C1.13068182 19.5 1.13068182 19.5 -2.25 19.5 C-5.68444625 18.09099641 -7.95984269 17.10078953 -10.6875 14.5 C-11.70074484 10.95064531 -11.74256664 8.04160206 -10.6875 4.5 C-7.70871652 1.14976151 -4.5018688 -0.83755699 0 0 Z " fill="#6CC9A9" transform="translate(310.6875,205.5)"/>
  <path d="M0 0 C0.639375 0.309375 1.27875 0.61875 1.9375 0.9375 C3.54625 1.7109375 3.54625 1.7109375 5.1875 2.5 C6.095 2.974375 7.0025 3.44875 7.9375 3.9375 C8.28454665 7.66503814 8.44490498 11.22009091 7.9375 14.9375 C5.375 17.6875 5.375 17.6875 1.9375 18.9375 C-2.66881017 18.85808086 -5.77205428 18.21370136 -9.0625 14.9375 C-9.453125 12.23828125 -9.453125 12.23828125 -9.3125 9.25 C-9.27640625 8.25613281 -9.2403125 7.26226562 -9.203125 6.23828125 C-9.15671875 5.47902344 -9.1103125 4.71976563 -9.0625 3.9375 C-2.72770596 -0.08265776 -2.72770596 -0.08265776 0 0 Z " fill="#20AFA4" transform="translate(164.0625,203.0625)"/>
  <path d="M0 0 C0.61875 0.86625 0.61875 0.86625 1.25 1.75 C3.88955125 5.14370875 5.86373451 7.62124484 10 9 C10 9.66 10 10.32 10 11 C9.071875 11.350625 8.14375 11.70125 7.1875 12.0625 C3.0142355 14.59919019 2.53814504 16.4710174 1 21 C0.34 20.01 -0.32 19.02 -1 18 C-3.66142613 14.23729409 -5.55663057 12.35769621 -10 11 C-10 10.34 -10 9.68 -10 9 C-8.88625 8.79375 -7.7725 8.5875 -6.625 8.375 C-4.830625 7.694375 -4.830625 7.694375 -3 7 C-1.53641935 4.02812283 -1.53641935 4.02812283 -1 1 C-0.67 0.67 -0.34 0.34 0 0 Z " fill="#A2D4BA" transform="translate(329,78)"/>
  <path d="M0 0 C0.66 0.66 1.32 1.32 2 2 C1.5153125 2.4125 1.030625 2.825 0.53125 3.25 C-4.54250509 7.62123516 -9.32152134 12.20953648 -14 17 C-14.66 16.67 -15.32 16.34 -16 16 C-13.71297091 13.51651983 -11.41961168 11.03897425 -9.125 8.5625 C-8.47402344 7.85544922 -7.82304687 7.14839844 -7.15234375 6.41992188 C-6.52714844 5.74638672 -5.90195313 5.07285156 -5.2578125 4.37890625 C-4.39373779 3.44413452 -4.39373779 3.44413452 -3.51220703 2.49047852 C-2 1 -2 1 0 0 Z " fill="#2FACA5" transform="translate(210,162)"/>
  <path d="M0 0 C0.66 0.33 1.32 0.66 2 1 C-1.96 4.96 -5.92 8.92 -10 13 C-10.99 12.67 -11.98 12.34 -13 12 C-11.3989569 10.3719224 -9.79405264 8.74764115 -8.1875 7.125 C-7.29417969 6.22007812 -6.40085938 5.31515625 -5.48046875 4.3828125 C-3 2 -3 2 0 0 Z " fill="#21BD80" transform="translate(180,123)"/>
  <path d="M0 0 C2 2 2 2 2 5 C3.32 4.01 4.64 3.02 6 2 C5.34 5.96 4.68 9.92 4 14 C2.30942525 10.61885051 1.54184533 8.3700175 0.875 4.75 C0.70742188 3.85796875 0.53984375 2.9659375 0.3671875 2.046875 C0.18542969 1.03367188 0.18542969 1.03367188 0 0 Z " fill="#78ADD1" transform="translate(300,133)"/>
  <path d="M0 0 C1.670625 0.37125 1.670625 0.37125 3.375 0.75 C3.705 1.41 4.035 2.07 4.375 2.75 C3.281875 2.523125 2.18875 2.29625 1.0625 2.0625 C-2.46893683 1.38148876 -2.46893683 1.38148876 -4.4375 2.9375 C-5.67080213 4.81990851 -6.70451712 6.69661511 -7.625 8.75 C-8.625 6.75 -8.625 6.75 -7.875 4.25 C-5.88718537 0.27437073 -4.38655983 -0.30252137 0 0 Z " fill="#7EADE1" transform="translate(317.625,145.25)"/>
  <path d="M0 0 C0.66 0 1.32 0 2 0 C1.690625 0.495 1.38125 0.99 1.0625 1.5 C-0.41644382 4.97986781 -0.62402851 8.24028509 -1 12 C-1.33 12 -1.66 12 -2 12 C-2.05395478 10.37536158 -2.09277195 8.75021459 -2.125 7.125 C-2.14820313 6.22007812 -2.17140625 5.31515625 -2.1953125 4.3828125 C-2 2 -2 2 0 0 Z " fill="#30B28B" transform="translate(165,165)"/>
</svg>
